<svg width="16" height="10" viewBox="0 0 16 10" fill="none" xmlns="http://www.w3.org/2000/svg">
<path d="M7.37568 9.44469L0.255608 2.32449C0.0907959 2.15981 -7.16833e-08 1.93997 -6.14371e-08 1.70557C-5.1191e-08 1.47117 0.090796 1.25133 0.255608 1.08665L0.779831 0.562295C1.12142 0.221094 1.6766 0.221094 2.01767 0.562295L7.99668 6.5413L13.9823 0.555661C14.1471 0.390979 14.3668 0.300053 14.6011 0.300053C14.8357 0.300053 15.0554 0.390979 15.2203 0.555661L15.7444 1.08001C15.9092 1.24483 16 1.46453 16 1.69894C16 1.93334 15.9092 2.15318 15.7444 2.31786L8.61782 9.44469C8.45248 9.60977 8.23174 9.70043 7.99707 9.69991C7.7615 9.70043 7.54088 9.60977 7.37568 9.44469Z" fill="#333333"/>
</svg>
